<svg xmlns="http://www.w3.org/2000/svg" xmlns:xlink="http://www.w3.org/1999/xlink" viewBox="0 0 226.724 226.724"><defs><style>.cls-1{fill:url(#linear-gradient);}.cls-2{fill:#fff;}</style><linearGradient id="linear-gradient" y1="113.362" x2="226.724" y2="113.362" gradientUnits="userSpaceOnUse"><stop offset="0.188" stop-color="#732383"/><stop offset="0.447" stop-color="#732383"/><stop offset="0.666" stop-color="#772585" stop-opacity="0.988"/><stop offset="0.744" stop-color="#862b8b" stop-opacity="0.945"/><stop offset="0.8" stop-color="#9f3596" stop-opacity="0.87"/><stop offset="0.832" stop-color="#b73fa0" stop-opacity="0.8"/><stop offset="0.867" stop-color="#983293" stop-opacity="0.891"/><stop offset="0.916" stop-color="#7c2787" stop-opacity="0.973"/><stop offset="0.961" stop-color="#732383"/></linearGradient></defs><g id="Layer_2" data-name="Layer 2"><g id="Layer_1-2" data-name="Layer 1"><rect class="cls-1" width="226.724" height="226.724" rx="59.903"/><path class="cls-2" d="M152.222,86.783l-7.98-15.82c-.465-.93-.929-1.843-1.394-2.773-.994-1.971-2-3.959-3-5.946-.833-1.651-1.666-3.3-2.515-4.953a38.092,38.092,0,0,0-2.388-4.616,8.07,8.07,0,0,0-3.333-2.709,7.422,7.422,0,0,0-3.509-.657,7.557,7.557,0,0,0-3.734,1.234,11.616,11.616,0,0,0-2.98,3.27c-.657.946-1.3,1.908-1.955,2.869-.16.257-.337.5-.5.737L115.9,61.907l-4.535,6.668-7.115,10.5-2.868,4.215-6.153,9.056-2.052,3.013-1.49,2.2a2.094,2.094,0,0,0-.16.241l-.012.017a2.877,2.877,0,0,0-.172.353l-9.492,13.93-.017-.034v0h0l-5.32,7.822-7.676,11.3-5.544,8.174L48.4,161.248l-6.218,9.168a3.458,3.458,0,0,0,2.852,5.417H87.725a7.518,7.518,0,0,0,6.25-3.317c.32-.449.625-.9.929-1.363l.032-.032,4.471-6.587.016-.016,5.1-7.5,8.6-12.662,4.791-7.053,5.849-8.623,15.271-22.487,8.156-12,6.73,12.871,29.437,56.322.016.048.192.352,3.509-7.965-28.25-55.97Zm-57.293,84.34a72.957,72.957,0,0,1,4.478-6.594Z"/><path class="cls-2" d="M203.713,149.755l-32.379-64.18-6.6-13.059L149.187,41.689l-.349-.42a25.964,25.964,0,0,0-15.194-8.917,26.8,26.8,0,0,0-4.865-.449c-.747,0-1.474.038-2.152.1a25.735,25.735,0,0,0-9.837,2.785,7.945,7.945,0,0,0-.756.422,25.425,25.425,0,0,0-7.626,6.421l-.124.155-1.842,2.738L100.27,53.61,79.245,84.558l-.552.785-2.742,4.068c-.239.367-.483.745-.7,1.125l-5.027,7.418-.044-.074L27.311,161.008h-.019L26.148,162.7l-.028.027-.141.224-1.8,2.674v.227a17.756,17.756,0,0,0-.828,1.844,19.434,19.434,0,0,0-1.319,7.061c0,.5.023,1.014.058,1.382a19.2,19.2,0,0,0,1.259,5.676A19.493,19.493,0,0,0,38.3,194.041a47.587,47.587,0,0,0,8.512.577q4.012.017,8.025.054c4.036.032,8.074.064,12.111.064,4.986,0,9.149-.049,13.1-.152.81-.022,1.64-.03,2.483-.04,6.426-.071,14.422-.159,20.3-5.816a20.874,20.874,0,0,0,2.491-2.951l4.82-6.927,3.026,6,.109.176a19.289,19.289,0,0,0,2.085,2.787,20.284,20.284,0,0,0,15.1,6.695h43.794a19.238,19.238,0,0,0,9.81-2.695,19.631,19.631,0,0,0,9.058-12.37L204.7,151.725ZM188.516,178v.016a14.8,14.8,0,0,1-6.906,9.665,14.387,14.387,0,0,1-7.355,2.019H130.461a15.449,15.449,0,0,1-11.521-5.1,14.564,14.564,0,0,1-1.57-2.1l-1.17-2.324-2.2-4.344-2.9-5.754-.3-.593-9.422,13.544a16.081,16.081,0,0,1-1.907,2.26c-5.128,4.936-13,4.311-19.549,4.488-11.025.288-22.065.08-33.09.032a43.7,43.7,0,0,1-7.659-.5,15.116,15.116,0,0,1-7.419-3.542,14.826,14.826,0,0,1-3.926-5.69,14.371,14.371,0,0,1-.946-4.248c-.032-.352-.048-.721-.048-1.074a14.674,14.674,0,0,1,.994-5.321,13.291,13.291,0,0,1,1.137-2.292c0-.016.016-.032.016-.048l.866-1.282c.016,0,.016-.016.032-.032l30.574-45.022,9.47-13.945.048.08,9.374-13.832c.208-.384.464-.769.7-1.138l2.628-3.894.5-.706,3.942-5.8,1.523-2.244,15.607-22.967,4.935-7.277,1.234-1.811,1.747-2.6a20.768,20.768,0,0,1,6.362-5.3,2.777,2.777,0,0,1,.416-.24A21.079,21.079,0,0,1,127,36.792c.577-.049,1.17-.08,1.779-.08a21.9,21.9,0,0,1,3.99.368,21.089,21.089,0,0,1,12.37,7.261l4.038,8.014,11.265,22.327,6.6,13.062L188.516,130.3,199,151.07l.417.834Z"/><path class="cls-2" d="M167.974,161.585l-22.21-42.522-13.027,18.848-8.413,12.166L119.5,157l.208.4,2.436,4.825.16.3,5.737,11.38a3.528,3.528,0,0,0,3.14,1.923h42.031a1.344,1.344,0,0,0,1.2-1.955C172.364,169.967,167.989,161.585,167.974,161.585Z"/></g></g></svg>